<svg width="27" height="30" viewBox="0 0 27 30" fill="none" xmlns="http://www.w3.org/2000/svg">
<g id="Bell">
<rect id="Rectangle 2" x="14" y="1" width="12" height="12" rx="6" fill="#E3A224"/>
<path id="bell" d="M17.1765 23.261V24.6958C17.1765 27.073 15.2013 29 12.7647 29C10.3281 29 8.35294 27.073 8.35294 24.6958V23.2612M17.1765 23.261L8.35294 23.2612M17.1765 23.261H23.0588C23.871 23.261 24.5294 22.6187 24.5294 21.8263V20.9857C24.5294 20.6052 24.3743 20.2403 24.0985 19.9712L23.3475 19.2384C23.1626 19.0581 23.0588 18.8133 23.0588 18.5582V13.2178C23.0588 12.9647 23.0494 12.7136 23.0301 12.4662M8.35294 23.2612H2.47059C1.65841 23.2612 1 22.6184 1 21.826V20.9857C1 20.6052 1.15506 20.2407 1.43084 19.9716L2.18193 19.2377C2.36675 19.0574 2.47059 18.8136 2.47059 18.5585V13.2178C2.47059 7.67113 7.07941 3.17464 12.7647 3.17464C13.8112 3.17464 14.8212 3.32698 15.7726 3.61018M23.0301 12.4662C24.8041 11.4779 26 9.61464 26 7.47887C26 4.30932 23.3663 1.7399 20.1176 1.7399C18.3968 1.7399 16.8484 2.4609 15.7726 3.61018M23.0301 12.4662C22.1715 12.9445 21.1772 13.2178 20.1176 13.2178C16.869 13.2178 14.2353 10.6484 14.2353 7.47887C14.2353 5.98831 14.8178 4.63047 15.7726 3.61018M15.7726 3.61018C15.7734 3.61039 15.7741 3.61059 15.7747 3.6108" stroke="white" stroke-width="2" stroke-linecap="round" stroke-linejoin="round"/>
</g>
</svg>
